<?xml version="1.0" standalone="no"?>
<!DOCTYPE svg PUBLIC "-//W3C//DTD SVG 20010904//EN"
 "http://www.w3.org/TR/2001/REC-SVG-20010904/DTD/svg10.dtd">
<svg version="1.0" xmlns="http://www.w3.org/2000/svg"
 width="260.000000pt" height="260.000000pt" viewBox="0 0 260.000000 260.000000"
 preserveAspectRatio="xMidYMid meet">
<metadata>
Created by potrace 1.11, written by Peter Selinger 2001-2013
</metadata>
<g transform="translate(0.000000,260.000000) scale(0.100000,-0.100000)"
fill="#000000" stroke="none">
<path d="M470 2426 c-148 -42 -266 -165 -299 -316 -7 -28 -11 -334 -11 -815 0
-821 0 -817 50 -914 29 -57 114 -142 171 -171 97 -50 93 -50 920 -50 746 0
779 1 840 20 130 40 232 140 276 269 l22 66 1 780 c0 832 0 827 -50 924 -28
56 -114 142 -168 170 -100 51 -100 51 -932 50 -588 -1 -786 -4 -820 -13z
m1650 -139 c72 -26 140 -95 168 -170 21 -54 21 -68 19 -829 l-2 -773 -28 -57
c-32 -64 -80 -111 -146 -142 -46 -21 -54 -21 -831 -21 l-785 0 -52 24 c-65 29
-124 91 -149 157 -18 47 -19 86 -19 834 l0 785 30 54 c16 30 49 70 73 90 83
70 59 68 907 68 736 0 762 0 815 -20z"/>
<path d="M610 1448 c-109 -55 -118 -218 -18 -290 26 -18 46 -23 93 -23 52 0
64 4 94 30 18 17 39 41 46 55 32 62 20 147 -27 197 -53 57 -115 67 -188 31z"/>
<path d="M1235 1456 c-86 -39 -124 -151 -80 -236 61 -117 225 -117 285 0 38
75 16 173 -51 221 -39 27 -112 35 -154 15z"/>
<path d="M1855 1456 c-102 -46 -131 -180 -58 -267 55 -64 133 -76 205 -30 105
67 102 223 -5 286 -48 28 -96 31 -142 11z"/>
</g>
</svg>
